<?xml version="1.0" encoding="UTF-8" standalone="no"?>
<!DOCTYPE svg PUBLIC "-//W3C//DTD SVG 1.1//EN"
 "http://www.w3.org/Graphics/SVG/1.1/DTD/svg11.dtd">
<!-- Generated by graphviz version 2.43.0 (0)
 -->
<!-- Title: UseCase Pages: 1 -->
<svg width="1074pt" height="1284pt"
 viewBox="0.00 0.00 1074.49 1283.60" xmlns="http://www.w3.org/2000/svg" xmlns:xlink="http://www.w3.org/1999/xlink">
<g id="graph0" class="graph" transform="scale(1 1) rotate(0) translate(28.8 1254.8)">
<title>UseCase</title>
<polygon fill="white" stroke="transparent" points="-28.8,28.8 -28.8,-1254.8 1045.69,-1254.8 1045.69,28.8 -28.8,28.8"/>
<g id="clust1" class="cluster">
<title>cluster_auth</title>
<polygon fill="none" stroke="#bbbbbb" stroke-dasharray="5,2" points="267.44,-652 267.44,-775 434.44,-775 434.44,-652 267.44,-652"/>
<text text-anchor="middle" x="350.94" y="-763" font-family="Helvetica,sans-Serif" font-size="10.00">Access</text>
</g>
<g id="clust2" class="cluster">
<title>cluster_book</title>
<polygon fill="none" stroke="#bbbbbb" stroke-dasharray="5,2" points="257,-783 257,-1218 761.89,-1218 761.89,-783 257,-783"/>
<text text-anchor="middle" x="509.44" y="-1206" font-family="Helvetica,sans-Serif" font-size="10.00">Booking</text>
</g>
<g id="clust3" class="cluster">
<title>cluster_mgr</title>
<polygon fill="none" stroke="#bbbbbb" stroke-dasharray="5,2" points="260.53,-411 260.53,-644 441.36,-644 441.36,-411 260.53,-411"/>
<text text-anchor="middle" x="350.94" y="-632" font-family="Helvetica,sans-Serif" font-size="10.00">Facility management (scoped)</text>
</g>
<g id="clust4" class="cluster">
<title>cluster_admin</title>
<polygon fill="none" stroke="#bbbbbb" stroke-dasharray="5,2" points="267.44,-8 267.44,-403 434.44,-403 434.44,-8 267.44,-8"/>
<text text-anchor="middle" x="350.94" y="-391" font-family="Helvetica,sans-Serif" font-size="10.00">Administration</text>
</g>
<!-- Student -->
<g id="node1" class="node">
<title>Student</title>
<path fill="#e8eef7" stroke="#33507a" d="M96,-956C96,-956 12,-956 12,-956 6,-956 0,-950 0,-944 0,-944 0,-932 0,-932 0,-926 6,-920 12,-920 12,-920 96,-920 96,-920 102,-920 108,-926 108,-932 108,-932 108,-944 108,-944 108,-950 102,-956 96,-956"/>
<text text-anchor="middle" x="54" y="-935.5" font-family="Helvetica,sans-Serif" font-size="10.00">Student</text>
</g>
<!-- UC1 -->
<g id="node6" class="node">
<title>UC1</title>
<ellipse fill="#ffffff" stroke="#666666" cx="350.94" cy="-730" rx="75.5" ry="18"/>
<text text-anchor="middle" x="350.94" y="-727.5" font-family="Helvetica,sans-Serif" font-size="10.00">Register / sign in</text>
</g>
<!-- Student&#45;&gt;UC1 -->
<g id="edge1" class="edge">
<title>Student&#45;&gt;UC1</title>
<path fill="none" stroke="#555555" d="M75.27,-919.94C110.62,-888.93 186.52,-824.52 257,-779 273.93,-768.06 293.57,-757.44 310.41,-748.89"/>
<polygon fill="#555555" stroke="#555555" points="311.6,-750.65 316.01,-746.08 309.71,-746.9 311.6,-750.65"/>
</g>
<!-- UC2 -->
<g id="node7" class="node">
<title>UC2</title>
<ellipse fill="#ffffff" stroke="#666666" cx="350.94" cy="-678" rx="75.5" ry="18"/>
<text text-anchor="middle" x="350.94" y="-675.5" font-family="Helvetica,sans-Serif" font-size="10.00">View notifications</text>
</g>
<!-- Student&#45;&gt;UC2 -->
<g id="edge2" class="edge">
<title>Student&#45;&gt;UC2</title>
<path fill="none" stroke="#555555" d="M65.23,-919.68C91.09,-875.16 163.71,-760.79 257,-704 265.73,-698.68 275.59,-694.42 285.52,-691.02"/>
<polygon fill="#555555" stroke="#555555" points="286.32,-692.97 291.38,-689.11 285.02,-688.97 286.32,-692.97"/>
</g>
<!-- UC3 -->
<g id="node8" class="node">
<title>UC3</title>
<ellipse fill="#ffffff" stroke="#666666" cx="350.94" cy="-1017" rx="85.89" ry="18"/>
<text text-anchor="middle" x="350.94" y="-1014.5" font-family="Helvetica,sans-Serif" font-size="10.00">Browse venues &amp; facilities</text>
</g>
<!-- Student&#45;&gt;UC3 -->
<g id="edge3" class="edge">
<title>Student&#45;&gt;UC3</title>
<path fill="none" stroke="#555555" d="M108.07,-952.21C159.65,-966.03 237.82,-986.97 291.24,-1001.28"/>
<polygon fill="#555555" stroke="#555555" points="290.96,-1003.38 297.3,-1002.9 292.05,-999.32 290.96,-1003.38"/>
</g>
<!-- UC4 -->
<g id="node9" class="node">
<title>UC4</title>
<ellipse fill="#ffffff" stroke="#666666" cx="350.94" cy="-965" rx="75.5" ry="18"/>
<text text-anchor="middle" x="350.94" y="-962.5" font-family="Helvetica,sans-Serif" font-size="10.00">View live availability</text>
</g>
<!-- Student&#45;&gt;UC4 -->
<g id="edge4" class="edge">
<title>Student&#45;&gt;UC4</title>
<path fill="none" stroke="#555555" d="M108.07,-942.86C154.29,-947.09 221.85,-953.27 273.83,-958.03"/>
<polygon fill="#555555" stroke="#555555" points="273.92,-960.15 280.09,-958.6 274.3,-955.97 273.92,-960.15"/>
</g>
<!-- UC5 -->
<g id="node10" class="node">
<title>UC5</title>
<ellipse fill="#ffffff" stroke="#666666" cx="350.94" cy="-913" rx="75.5" ry="18"/>
<text text-anchor="middle" x="350.94" y="-910.5" font-family="Helvetica,sans-Serif" font-size="10.00">Request a booking</text>
</g>
<!-- Student&#45;&gt;UC5 -->
<g id="edge5" class="edge">
<title>Student&#45;&gt;UC5</title>
<path fill="none" stroke="#555555" d="M108.07,-933.5C154.13,-929.6 221.38,-923.9 273.29,-919.5"/>
<polygon fill="#555555" stroke="#555555" points="273.74,-921.57 279.54,-918.97 273.38,-917.38 273.74,-921.57"/>
</g>
<!-- UC7 -->
<g id="node12" class="node">
<title>UC7</title>
<ellipse fill="#ffffff" stroke="#666666" cx="350.94" cy="-861" rx="75.5" ry="18"/>
<text text-anchor="middle" x="350.94" y="-858.5" font-family="Helvetica,sans-Serif" font-size="10.00">Request equipment</text>
</g>
<!-- Student&#45;&gt;UC7 -->
<g id="edge6" class="edge">
<title>Student&#45;&gt;UC7</title>
<path fill="none" stroke="#555555" d="M108.07,-924.15C160.29,-910.51 239.76,-889.77 293.21,-875.81"/>
<polygon fill="#555555" stroke="#555555" points="294,-877.78 299.27,-874.23 292.94,-873.71 294,-877.78"/>
</g>
<!-- UC8 -->
<g id="node13" class="node">
<title>UC8</title>
<ellipse fill="#ffffff" stroke="#666666" cx="350.94" cy="-809" rx="75.5" ry="18"/>
<text text-anchor="middle" x="350.94" y="-806.5" font-family="Helvetica,sans-Serif" font-size="10.00">View popular times</text>
</g>
<!-- Student&#45;&gt;UC8 -->
<g id="edge7" class="edge">
<title>Student&#45;&gt;UC8</title>
<path fill="none" stroke="#555555" d="M85.6,-919.96C124.42,-897.65 193.93,-859.62 257,-835 267.9,-830.75 279.77,-826.88 291.27,-823.5"/>
<polygon fill="#555555" stroke="#555555" points="292.05,-825.46 297.24,-821.78 290.89,-821.42 292.05,-825.46"/>
</g>
<!-- UC9 -->
<g id="node14" class="node">
<title>UC9</title>
<ellipse fill="#ffffff" stroke="#666666" cx="350.94" cy="-1173" rx="75.5" ry="18"/>
<text text-anchor="middle" x="350.94" y="-1170.5" font-family="Helvetica,sans-Serif" font-size="10.00">Cancel booking</text>
</g>
<!-- Student&#45;&gt;UC9 -->
<g id="edge8" class="edge">
<title>Student&#45;&gt;UC9</title>
<path fill="none" stroke="#555555" d="M66.63,-956.08C94.19,-997.32 167.91,-1098.52 257,-1147 266.31,-1152.07 276.7,-1156.22 287.06,-1159.6"/>
<polygon fill="#555555" stroke="#555555" points="286.46,-1161.61 292.81,-1161.4 287.71,-1157.6 286.46,-1161.61"/>
</g>
<!-- UC10 -->
<g id="node15" class="node">
<title>UC10</title>
<ellipse fill="#ffffff" stroke="#666666" cx="350.94" cy="-1121" rx="75.5" ry="18"/>
<text text-anchor="middle" x="350.94" y="-1118.5" font-family="Helvetica,sans-Serif" font-size="10.00">Check in</text>
</g>
<!-- Student&#45;&gt;UC10 -->
<g id="edge9" class="edge">
<title>Student&#45;&gt;UC10</title>
<path fill="none" stroke="#555555" d="M73.02,-956.19C106.36,-988.81 181.21,-1057.39 257,-1095 266.75,-1099.84 277.54,-1103.9 288.21,-1107.26"/>
<polygon fill="#555555" stroke="#555555" points="287.77,-1109.32 294.12,-1109.05 288.99,-1105.3 287.77,-1109.32"/>
</g>
<!-- UC11 -->
<g id="node16" class="node">
<title>UC11</title>
<ellipse fill="#ffffff" stroke="#666666" cx="350.94" cy="-1069" rx="75.5" ry="18"/>
<text text-anchor="middle" x="350.94" y="-1066.5" font-family="Helvetica,sans-Serif" font-size="10.00">Ask the AI assistant</text>
</g>
<!-- Student&#45;&gt;UC11 -->
<g id="edge10" class="edge">
<title>Student&#45;&gt;UC11</title>
<path fill="none" stroke="#555555" d="M84.88,-956.04C123.51,-978.76 193.4,-1017.89 257,-1043 267.88,-1047.3 279.74,-1051.18 291.24,-1054.57"/>
<polygon fill="#555555" stroke="#555555" points="290.86,-1056.64 297.21,-1056.29 292.03,-1052.61 290.86,-1056.64"/>
</g>
<!-- Manager -->
<g id="node2" class="node">
<title>Manager</title>
<path fill="#e8eef7" stroke="#33507a" d="M96,-586C96,-586 12,-586 12,-586 6,-586 0,-580 0,-574 0,-574 0,-562 0,-562 0,-556 6,-550 12,-550 12,-550 96,-550 96,-550 102,-550 108,-556 108,-562 108,-562 108,-574 108,-574 108,-580 102,-586 96,-586"/>
<text text-anchor="middle" x="54" y="-571" font-family="Helvetica,sans-Serif" font-size="10.00">Facility</text>
<text text-anchor="middle" x="54" y="-560" font-family="Helvetica,sans-Serif" font-size="10.00">Manager</text>
</g>
<!-- Manager&#45;&gt;UC1 -->
<g id="edge11" class="edge">
<title>Manager&#45;&gt;UC1</title>
<path fill="none" stroke="#555555" d="M76.61,-586.01C112.12,-614.79 185.99,-671.21 257,-704 267.01,-708.62 278.02,-712.59 288.85,-715.93"/>
<polygon fill="#555555" stroke="#555555" points="288.49,-718.01 294.84,-717.72 289.69,-713.99 288.49,-718.01"/>
</g>
<!-- Manager&#45;&gt;UC2 -->
<g id="edge12" class="edge">
<title>Manager&#45;&gt;UC2</title>
<path fill="none" stroke="#555555" d="M98.43,-586.15C139.13,-602.92 201.8,-628.18 257,-648 270.15,-652.72 284.46,-657.51 297.82,-661.83"/>
<polygon fill="#555555" stroke="#555555" points="297.53,-663.95 303.89,-663.79 298.82,-659.95 297.53,-663.95"/>
</g>
<!-- UC12 -->
<g id="node17" class="node">
<title>UC12</title>
<ellipse fill="#ffffff" stroke="#666666" cx="350.94" cy="-489" rx="81.65" ry="18"/>
<text text-anchor="middle" x="350.94" y="-486.5" font-family="Helvetica,sans-Serif" font-size="10.00">Approve / reject requests</text>
</g>
<!-- Manager&#45;&gt;UC12 -->
<g id="edge13" class="edge">
<title>Manager&#45;&gt;UC12</title>
<path fill="none" stroke="#555555" d="M108.07,-553.79C159.97,-539.88 238.79,-518.77 292.23,-504.46"/>
<polygon fill="#555555" stroke="#555555" points="293.04,-506.42 298.29,-502.84 291.95,-502.36 293.04,-506.42"/>
</g>
<!-- UC13 -->
<g id="node18" class="node">
<title>UC13</title>
<ellipse fill="#ffffff" stroke="#666666" cx="350.94" cy="-596" rx="76.24" ry="21.43"/>
<text text-anchor="middle" x="350.94" y="-599" font-family="Helvetica,sans-Serif" font-size="10.00">Record attendance</text>
<text text-anchor="middle" x="350.94" y="-588" font-family="Helvetica,sans-Serif" font-size="10.00">/ no&#45;show</text>
</g>
<!-- Manager&#45;&gt;UC13 -->
<g id="edge14" class="edge">
<title>Manager&#45;&gt;UC13</title>
<path fill="none" stroke="#555555" d="M108.07,-573.04C153.81,-577.38 220.45,-583.71 272.21,-588.62"/>
<polygon fill="#555555" stroke="#555555" points="272.27,-590.74 278.44,-589.21 272.67,-586.55 272.27,-590.74"/>
</g>
<!-- UC14 -->
<g id="node19" class="node">
<title>UC14</title>
<ellipse fill="#ffffff" stroke="#666666" cx="350.94" cy="-437" rx="82.33" ry="18"/>
<text text-anchor="middle" x="350.94" y="-434.5" font-family="Helvetica,sans-Serif" font-size="10.00">Manage equipment stock</text>
</g>
<!-- Manager&#45;&gt;UC14 -->
<g id="edge15" class="edge">
<title>Manager&#45;&gt;UC14</title>
<path fill="none" stroke="#555555" d="M84.88,-549.96C123.51,-527.24 193.4,-488.11 257,-463 267.13,-459 278.1,-455.36 288.83,-452.15"/>
<polygon fill="#555555" stroke="#555555" points="289.6,-454.11 294.77,-450.41 288.42,-450.08 289.6,-454.11"/>
</g>
<!-- UC15 -->
<g id="node20" class="node">
<title>UC15</title>
<ellipse fill="#ffffff" stroke="#666666" cx="350.94" cy="-541" rx="75.5" ry="18"/>
<text text-anchor="middle" x="350.94" y="-538.5" font-family="Helvetica,sans-Serif" font-size="10.00">Manage lost &amp; found</text>
</g>
<!-- Manager&#45;&gt;UC15 -->
<g id="edge16" class="edge">
<title>Manager&#45;&gt;UC15</title>
<path fill="none" stroke="#555555" d="M108.07,-563.14C154.29,-558.91 221.85,-552.73 273.83,-547.97"/>
<polygon fill="#555555" stroke="#555555" points="274.3,-550.03 280.09,-547.4 273.92,-545.85 274.3,-550.03"/>
</g>
<!-- Admin -->
<g id="node3" class="node">
<title>Admin</title>
<path fill="#e8eef7" stroke="#33507a" d="M96,-324C96,-324 12,-324 12,-324 6,-324 0,-318 0,-312 0,-312 0,-300 0,-300 0,-294 6,-288 12,-288 12,-288 96,-288 96,-288 102,-288 108,-294 108,-300 108,-300 108,-312 108,-312 108,-318 102,-324 96,-324"/>
<text text-anchor="middle" x="54" y="-303.5" font-family="Helvetica,sans-Serif" font-size="10.00">Administrator</text>
</g>
<!-- Admin&#45;&gt;UC1 -->
<g id="edge17" class="edge">
<title>Admin&#45;&gt;UC1</title>
<path fill="none" stroke="#555555" d="M61.95,-324.19C89.28,-394.86 191.1,-649.94 257,-704 264.23,-709.93 272.72,-714.51 281.58,-718.04"/>
<polygon fill="#555555" stroke="#555555" points="281.09,-720.1 287.44,-720.22 282.55,-716.16 281.09,-720.1"/>
</g>
<!-- Admin&#45;&gt;UC2 -->
<g id="edge18" class="edge">
<title>Admin&#45;&gt;UC2</title>
<path fill="none" stroke="#555555" d="M68.66,-324.11C87.63,-348.38 123.93,-391.78 162,-421 181.56,-436.01 196,-427.43 211,-447 266.75,-519.73 195.09,-580.43 257,-648 263.99,-655.63 272.93,-661.32 282.49,-665.58"/>
<polygon fill="#555555" stroke="#555555" points="281.83,-667.58 288.18,-667.92 283.43,-663.69 281.83,-667.58"/>
</g>
<!-- Admin&#45;&gt;UC12 -->
<g id="edge26" class="edge">
<title>Admin&#45;&gt;UC12</title>
<path fill="none" stroke="#555555" stroke-dasharray="5,2" d="M77.96,-324.01C99.07,-340.11 131.62,-363.74 162,-381 182.76,-392.79 192.28,-388.19 211,-403 237.35,-423.85 229.17,-444.17 257,-463 264.44,-468.03 272.85,-472.1 281.48,-475.38"/>
<polygon fill="#555555" stroke="#555555" points="281.13,-477.49 287.48,-477.53 282.54,-473.53 281.13,-477.49"/>
<text text-anchor="middle" x="186.5" y="-414.6" font-family="Helvetica,sans-Serif" font-size="8.00">unassigned</text>
<text text-anchor="middle" x="186.5" y="-405.6" font-family="Helvetica,sans-Serif" font-size="8.00">facilities</text>
</g>
<!-- Admin&#45;&gt;UC14 -->
<g id="edge27" class="edge">
<title>Admin&#45;&gt;UC14</title>
<path fill="none" stroke="#555555" stroke-dasharray="5,2" d="M92.31,-324.13C123.99,-339.58 170.6,-362.49 211,-383 231.56,-393.44 235.73,-398.09 257,-407 268.83,-411.95 281.78,-416.6 294.16,-420.68"/>
<polygon fill="#555555" stroke="#555555" points="293.82,-422.78 300.18,-422.64 295.12,-418.79 293.82,-422.78"/>
</g>
<!-- UC16 -->
<g id="node21" class="node">
<title>UC16</title>
<ellipse fill="#ffffff" stroke="#666666" cx="350.94" cy="-199" rx="75.5" ry="21.43"/>
<text text-anchor="middle" x="350.94" y="-202" font-family="Helvetica,sans-Serif" font-size="10.00">Add facility type</text>
<text text-anchor="middle" x="350.94" y="-191" font-family="Helvetica,sans-Serif" font-size="10.00">(+ booking rules)</text>
</g>
<!-- Admin&#45;&gt;UC16 -->
<g id="edge19" class="edge">
<title>Admin&#45;&gt;UC16</title>
<path fill="none" stroke="#555555" d="M99.22,-287.96C139.94,-271.57 202.16,-247.12 257,-228 268.52,-223.98 280.94,-219.93 292.82,-216.17"/>
<polygon fill="#555555" stroke="#555555" points="293.52,-218.15 298.61,-214.35 292.26,-214.15 293.52,-218.15"/>
</g>
<!-- UC17 -->
<g id="node22" class="node">
<title>UC17</title>
<ellipse fill="#ffffff" stroke="#666666" cx="350.94" cy="-144" rx="75.5" ry="18"/>
<text text-anchor="middle" x="350.94" y="-141.5" font-family="Helvetica,sans-Serif" font-size="10.00">Add rooms / courts</text>
</g>
<!-- Admin&#45;&gt;UC17 -->
<g id="edge20" class="edge">
<title>Admin&#45;&gt;UC17</title>
<path fill="none" stroke="#555555" d="M76.61,-287.99C112.12,-259.21 185.99,-202.79 257,-170 267.01,-165.38 278.02,-161.41 288.85,-158.07"/>
<polygon fill="#555555" stroke="#555555" points="289.69,-160.01 294.84,-156.28 288.49,-155.99 289.69,-160.01"/>
</g>
<!-- UC18 -->
<g id="node23" class="node">
<title>UC18</title>
<ellipse fill="#ffffff" stroke="#666666" cx="350.94" cy="-89" rx="75.5" ry="21.43"/>
<text text-anchor="middle" x="350.94" y="-92" font-family="Helvetica,sans-Serif" font-size="10.00">Override rules</text>
<text text-anchor="middle" x="350.94" y="-81" font-family="Helvetica,sans-Serif" font-size="10.00">for one court</text>
</g>
<!-- Admin&#45;&gt;UC18 -->
<g id="edge21" class="edge">
<title>Admin&#45;&gt;UC18</title>
<path fill="none" stroke="#555555" d="M68.67,-287.86C98.39,-249.82 173.02,-161.59 257,-118 266.62,-113.01 277.25,-108.69 287.79,-105.04"/>
<polygon fill="#555555" stroke="#555555" points="288.61,-106.98 293.62,-103.07 287.27,-103 288.61,-106.98"/>
</g>
<!-- UC19 -->
<g id="node24" class="node">
<title>UC19</title>
<ellipse fill="#ffffff" stroke="#666666" cx="350.94" cy="-34" rx="75.5" ry="18"/>
<text text-anchor="middle" x="350.94" y="-31.5" font-family="Helvetica,sans-Serif" font-size="10.00">Assign managers</text>
</g>
<!-- Admin&#45;&gt;UC19 -->
<g id="edge22" class="edge">
<title>Admin&#45;&gt;UC19</title>
<path fill="none" stroke="#555555" d="M63.72,-287.84C87.33,-240.89 157.49,-115.29 257,-60 266.06,-54.97 276.17,-50.85 286.29,-47.49"/>
<polygon fill="#555555" stroke="#555555" points="287.16,-49.42 292.24,-45.61 285.89,-45.42 287.16,-49.42"/>
</g>
<!-- UC20 -->
<g id="node25" class="node">
<title>UC20</title>
<ellipse fill="#ffffff" stroke="#666666" cx="350.94" cy="-358" rx="75.5" ry="18"/>
<text text-anchor="middle" x="350.94" y="-355.5" font-family="Helvetica,sans-Serif" font-size="10.00">Manage user roles</text>
</g>
<!-- Admin&#45;&gt;UC20 -->
<g id="edge23" class="edge">
<title>Admin&#45;&gt;UC20</title>
<path fill="none" stroke="#555555" d="M108.07,-315.36C157.26,-324.03 230.62,-336.96 283.64,-346.31"/>
<polygon fill="#555555" stroke="#555555" points="283.4,-348.4 289.68,-347.37 284.13,-344.26 283.4,-348.4"/>
</g>
<!-- UC21 -->
<g id="node26" class="node">
<title>UC21</title>
<ellipse fill="#ffffff" stroke="#666666" cx="350.94" cy="-306" rx="75.5" ry="18"/>
<text text-anchor="middle" x="350.94" y="-303.5" font-family="Helvetica,sans-Serif" font-size="10.00">View analytics</text>
</g>
<!-- Admin&#45;&gt;UC21 -->
<g id="edge24" class="edge">
<title>Admin&#45;&gt;UC21</title>
<path fill="none" stroke="#555555" d="M108.07,-306C152.93,-306 217.91,-306 269.22,-306"/>
<polygon fill="#555555" stroke="#555555" points="269.41,-308.1 275.41,-306 269.4,-303.9 269.41,-308.1"/>
</g>
<!-- UC22 -->
<g id="node27" class="node">
<title>UC22</title>
<ellipse fill="#ffffff" stroke="#666666" cx="350.94" cy="-254" rx="75.5" ry="18"/>
<text text-anchor="middle" x="350.94" y="-251.5" font-family="Helvetica,sans-Serif" font-size="10.00">View activity records</text>
</g>
<!-- Admin&#45;&gt;UC22 -->
<g id="edge25" class="edge">
<title>Admin&#45;&gt;UC22</title>
<path fill="none" stroke="#555555" d="M108.07,-296.64C157.26,-287.97 230.62,-275.04 283.64,-265.69"/>
<polygon fill="#555555" stroke="#555555" points="284.13,-267.74 289.68,-264.63 283.4,-263.6 284.13,-267.74"/>
</g>
<!-- AI -->
<g id="node4" class="node">
<title>AI</title>
<path fill="#f3e8dc" stroke="#8a6a3a" d="M1004.89,-1036.5C1004.89,-1036.5 920.89,-1036.5 920.89,-1036.5 914.89,-1036.5 908.89,-1030.5 908.89,-1024.5 908.89,-1024.5 908.89,-1007.5 908.89,-1007.5 908.89,-1001.5 914.89,-995.5 920.89,-995.5 920.89,-995.5 1004.89,-995.5 1004.89,-995.5 1010.89,-995.5 1016.89,-1001.5 1016.89,-1007.5 1016.89,-1007.5 1016.89,-1024.5 1016.89,-1024.5 1016.89,-1030.5 1010.89,-1036.5 1004.89,-1036.5"/>
<text text-anchor="middle" x="962.89" y="-1024.5" font-family="Helvetica,sans-Serif" font-size="10.00">AI Services</text>
<text text-anchor="middle" x="962.89" y="-1013.5" font-family="Helvetica,sans-Serif" font-size="10.00">(recommender,</text>
<text text-anchor="middle" x="962.89" y="-1002.5" font-family="Helvetica,sans-Serif" font-size="10.00">Gemini chatbot)</text>
</g>
<!-- DB -->
<g id="node5" class="node">
<title>DB</title>
<path fill="#f3e8dc" stroke="#8a6a3a" d="M720.39,-378.5C720.39,-378.5 636.39,-378.5 636.39,-378.5 630.39,-378.5 624.39,-372.5 624.39,-366.5 624.39,-366.5 624.39,-349.5 624.39,-349.5 624.39,-343.5 630.39,-337.5 636.39,-337.5 636.39,-337.5 720.39,-337.5 720.39,-337.5 726.39,-337.5 732.39,-343.5 732.39,-349.5 732.39,-349.5 732.39,-366.5 732.39,-366.5 732.39,-372.5 726.39,-378.5 720.39,-378.5"/>
<text text-anchor="middle" x="678.39" y="-366.5" font-family="Helvetica,sans-Serif" font-size="10.00">Database</text>
<text text-anchor="middle" x="678.39" y="-355.5" font-family="Helvetica,sans-Serif" font-size="10.00">(triggers: audit,</text>
<text text-anchor="middle" x="678.39" y="-344.5" font-family="Helvetica,sans-Serif" font-size="10.00">notifications)</text>
</g>
<!-- UC5&#45;&gt;DB -->
<g id="edge31" class="edge">
<title>UC5&#45;&gt;DB</title>
<path fill="none" stroke="#8a6a3a" stroke-dasharray="5,2" d="M413.77,-902.71C423.77,-898.98 433.44,-893.91 441.36,-887 603.5,-745.64 659.47,-471.2 673.49,-384.75"/>
<polygon fill="#8a6a3a" stroke="#8a6a3a" points="675.6,-384.87 674.47,-378.62 671.45,-384.21 675.6,-384.87"/>
<text text-anchor="middle" x="519.89" y="-842.6" font-family="Helvetica,sans-Serif" font-size="8.00">conflict check</text>
<text text-anchor="middle" x="519.89" y="-833.6" font-family="Helvetica,sans-Serif" font-size="8.00">+ notify</text>
</g>
<!-- UC6 -->
<g id="node11" class="node">
<title>UC6</title>
<ellipse fill="#ffffff" stroke="#666666" cx="678.39" cy="-977" rx="75.5" ry="21.43"/>
<text text-anchor="middle" x="678.39" y="-980" font-family="Helvetica,sans-Serif" font-size="10.00">Receive AI slot</text>
<text text-anchor="middle" x="678.39" y="-969" font-family="Helvetica,sans-Serif" font-size="10.00">recommendations</text>
</g>
<!-- UC5&#45;&gt;UC6 -->
<g id="edge30" class="edge">
<title>UC5&#45;&gt;UC6</title>
<path fill="none" stroke="#555555" stroke-dasharray="5,2" d="M409.75,-924.37C465.82,-935.39 550.86,-952.12 609.98,-963.74"/>
<polygon fill="#555555" stroke="#555555" points="609.68,-965.82 615.97,-964.92 610.49,-961.7 609.68,-965.82"/>
<text text-anchor="middle" x="519.89" y="-961.6" font-family="Helvetica,sans-Serif" font-size="8.00">&lt;&lt;extend&gt;&gt;</text>
<text text-anchor="middle" x="519.89" y="-952.6" font-family="Helvetica,sans-Serif" font-size="8.00">on conflict</text>
</g>
<!-- UC6&#45;&gt;AI -->
<g id="edge28" class="edge">
<title>UC6&#45;&gt;AI</title>
<path fill="none" stroke="#8a6a3a" stroke-dasharray="5,2" d="M746.7,-986.29C794.18,-992.85 857.18,-1001.54 902.74,-1007.83"/>
<polygon fill="#8a6a3a" stroke="#8a6a3a" points="902.53,-1009.93 908.76,-1008.67 903.11,-1005.76 902.53,-1009.93"/>
<text text-anchor="middle" x="831.39" y="-1003.6" font-family="Helvetica,sans-Serif" font-size="8.00">&lt;&lt;uses&gt;&gt;</text>
</g>
<!-- UC11&#45;&gt;AI -->
<g id="edge29" class="edge">
<title>UC11&#45;&gt;AI</title>
<path fill="none" stroke="#8a6a3a" stroke-dasharray="5,2" d="M422.21,-1062.89C543.34,-1052.37 789.34,-1030.99 902.5,-1021.16"/>
<polygon fill="#8a6a3a" stroke="#8a6a3a" points="902.98,-1023.23 908.77,-1020.62 902.61,-1019.04 902.98,-1023.23"/>
<text text-anchor="middle" x="678.39" y="-1048.6" font-family="Helvetica,sans-Serif" font-size="8.00">&lt;&lt;uses&gt;&gt;</text>
</g>
<!-- UC12&#45;&gt;DB -->
<g id="edge32" class="edge">
<title>UC12&#45;&gt;DB</title>
<path fill="none" stroke="#8a6a3a" stroke-dasharray="5,2" d="M403.87,-475.19C416.26,-471.54 429.36,-467.39 441.36,-463 508.34,-438.49 583.19,-403.91 630.28,-381.23"/>
<polygon fill="#8a6a3a" stroke="#8a6a3a" points="631.4,-383.03 635.89,-378.53 629.57,-379.24 631.4,-383.03"/>
<text text-anchor="middle" x="519.89" y="-444.6" font-family="Helvetica,sans-Serif" font-size="8.00">notify student</text>
</g>
<!-- UC16&#45;&gt;DB -->
<g id="edge33" class="edge">
<title>UC16&#45;&gt;DB</title>
<path fill="none" stroke="#8a6a3a" stroke-dasharray="5,2" d="M404.1,-214.07C416.48,-218.16 429.53,-222.88 441.36,-228 514.11,-259.5 593.98,-306.26 639.66,-334.28"/>
<polygon fill="#8a6a3a" stroke="#8a6a3a" points="638.57,-336.08 644.78,-337.43 640.77,-332.5 638.57,-336.08"/>
</g>
<!-- UC20&#45;&gt;DB -->
<g id="edge34" class="edge">
<title>UC20&#45;&gt;DB</title>
<path fill="none" stroke="#8a6a3a" stroke-dasharray="5,2" d="M426.61,-358C484.79,-358 564.47,-358 618.28,-358"/>
<polygon fill="#8a6a3a" stroke="#8a6a3a" points="618.38,-360.1 624.38,-358 618.38,-355.9 618.38,-360.1"/>
</g>
<!-- UC22&#45;&gt;DB -->
<g id="edge35" class="edge">
<title>UC22&#45;&gt;DB</title>
<path fill="none" stroke="#8a6a3a" stroke-dasharray="5,2" d="M400.3,-267.71C413.63,-271.59 428.08,-275.88 441.36,-280 501.95,-298.82 570.8,-321.75 618.43,-337.86"/>
<polygon fill="#8a6a3a" stroke="#8a6a3a" points="617.78,-339.85 624.13,-339.79 619.12,-335.88 617.78,-339.85"/>
<text text-anchor="middle" x="519.89" y="-316.6" font-family="Helvetica,sans-Serif" font-size="8.00">audit trail</text>
</g>
</g>
</svg>
